<svg xmlns="http://www.w3.org/2000/svg" width="22.684" height="31.875" viewBox="0 0 22.684 31.875">
  <g id="architect" transform="translate(-69.764 0.25)">
    <path id="Path_65" data-name="Path 65" d="M81.106,289.027a11.1,11.1,0,0,0-11.092,11.092v1.313H92.2v-1.313A11.1,11.1,0,0,0,81.106,289.027Zm1.313,9.78v-3.872H79.794v3.872H72.741a8.487,8.487,0,0,1,7.053-7.052v1.867h2.625v-1.867a8.487,8.487,0,0,1,7.053,7.052Z" transform="translate(0 -270.057)" fill="#fff" stroke="#707070" stroke-width="0.5" />
    <path id="Path_66" data-name="Path 66" d="M117.661,11.05a6.738,6.738,0,1,0,13.477,0c0-.061,0-.122,0-.183h1.316V8.242h-1.313V8.051a6.75,6.75,0,0,0-5.426-6.61V0h-2.625V1.441a6.75,6.75,0,0,0-5.426,6.61v.191h-1.313v2.625h1.316C117.662,10.928,117.661,10.989,117.661,11.05Zm10.851,0a4.113,4.113,0,1,1-8.226,0c0-.061,0-.122,0-.183h8.217C128.51,10.928,128.512,10.989,128.512,11.05Zm0-3v.191h-2.8V4.154A4.119,4.119,0,0,1,128.512,8.051Zm-8.226,0a4.12,4.12,0,0,1,2.8-3.9V8.242h-2.8Z" transform="translate(-43.293)" fill="#fff" stroke="#707070" stroke-width="0.5" />
  </g>
</svg>
