<svg xmlns="http://www.w3.org/2000/svg" width="14.92" height="16" viewBox="0 0 14.92 16">
  <path id="hand017_-_E1E2" data-name="hand017 - E1E2" d="M-3.074-42.277A3.054,3.054,0,0,0-5.207-43.4a9.314,9.314,0,0,0-2.248-.038,8.081,8.081,0,0,0,.141-2.376,4.543,4.543,0,0,0-.792-2.44,1.337,1.337,0,0,0-1.2-.536c-.281.038-.434.294-.549.549-.115.23-.23.549-.37.907a15.323,15.323,0,0,1-1.354,2.976,8.467,8.467,0,0,1-1.188,1.52,6.559,6.559,0,0,1-.536.485v8.328l.37.179a14.747,14.747,0,0,0,2.3.728,12.605,12.605,0,0,0,2.452.307l.2.013a4.773,4.773,0,0,0,1.865-.307,4.56,4.56,0,0,0,1.827-1.788,11.792,11.792,0,0,0,1.265-2.874A9.328,9.328,0,0,0-2.6-40.259,3.453,3.453,0,0,0-3.074-42.277Zm-10.87-.026a.7.7,0,0,0-.255-.536.724.724,0,0,0-.613-.141l-2.069.383a.807.807,0,0,0-.639.779v7.242a.832.832,0,0,0,.639.792l2.069.383a.622.622,0,0,0,.153.013.658.658,0,0,0,.46-.166.66.66,0,0,0,.255-.536Z" transform="translate(17.52 48.799)" fill="#d19e2c"/>
</svg>
