<svg xmlns="http://www.w3.org/2000/svg" width="42.501" height="42.465" viewBox="0 0 42.501 42.465">
  <path id="house" d="M37.5,4.248H30.039V7.99L21.251.5,0,18.611,5,22.2V40.478H.027v2.487H42.475V40.478H37.5V22.2l5-3.587-5-4.262ZM32.526,6.735h2.487v5.494l-2.487-2.12ZM15.162,27.876H27.34a6.583,6.583,0,0,1-4.846,4.884v7.719H20.007V32.76a6.58,6.58,0,0,1-4.846-4.884Zm2.358-2.486H15.161a6.222,6.222,0,0,1,2.359-3.7Zm7.462,0v-3.7a6.222,6.222,0,0,1,2.359,3.7Zm0,15.089V34.466a8.7,8.7,0,0,0,4.974-7.834c0-7.05-7.315-8.666-7.461-8.767v7.523H20.007V17.866c-.289.2-7.462,1.6-7.462,8.767a8.7,8.7,0,0,0,4.974,7.834v6.012H7.488V22.13L21.251,10.323,35.013,22.13V40.478H24.982Zm11.344-20.5L21.251,7.046,6.176,19.979,4.032,18.442,21.251,3.768,38.469,18.442Zm0,0" transform="translate(0 -0.5)" fill="#fff"/>
</svg>
