<svg xmlns="http://www.w3.org/2000/svg" width="16.726" height="17.319" viewBox="0 0 16.726 17.319">
  <g id="Icon_ionic-ios-share" data-name="Icon ionic-ios-share" transform="translate(-6.75 -3.382)">
    <path id="Path_30" data-name="Path 30" d="M21.385,12.375H15.792v4.987c0,.238-.282.442-.648.456-.392.014-.711-.191-.711-.442v-5H8.841c-1.15,0-2.091.612-2.091,1.361v7.076c0,.748.941,1.361,2.091,1.361H21.385c1.15,0,2.091-.612,2.091-1.361V13.736C23.476,12.987,22.535,12.375,21.385,12.375Z" transform="translate(0 -1.472)" fill="#f6f6f6"/>
    <path id="Path_31" data-name="Path 31" d="M16.6,5.969l2.213,2.775a.517.517,0,0,0,.85-.006.924.924,0,0,0,0-1.082L16.427,3.6a.55.55,0,0,0-.42-.218.469.469,0,0,0-.231.059.653.653,0,0,0-.189.159h0L12.352,7.657a.916.916,0,0,0,0,1.082.514.514,0,0,0,.85.006l2.2-2.775V10.9h1.2Z" transform="translate(-0.888)" fill="#f6f6f6"/>
  </g>
</svg>
