<svg id="owner" xmlns="http://www.w3.org/2000/svg" width="29.991" height="29.991" viewBox="0 0 29.991 29.991">
  <path id="Path_29" data-name="Path 29" d="M15.982,335.724a2.636,2.636,0,0,1,.286-3.717l1.994-1.709a7.89,7.89,0,0,0-2.153-.3h-.293v.586a3.807,3.807,0,1,1-7.615,0V330H7.908A7.917,7.917,0,0,0,0,337.908v1.874a.879.879,0,0,0,.879.879H4.686v-3.925a.879.879,0,1,1,1.757,0v3.925H16.812V336.37A2.635,2.635,0,0,1,15.982,335.724Z" transform="translate(0 -310.67)" fill="#fff"/>
  <path id="Path_30" data-name="Path 30" d="M304.58,306.982l-5.565-4.77a.879.879,0,0,0-1.144,0l-5.565,4.77a.879.879,0,0,0,1.144,1.334l.014-.012v6h4.1v-3.2a.9.9,0,0,1,.836-.9.879.879,0,0,1,.921.878V314.3h3.222a.879.879,0,0,0,.879-.879V308.3l.014.012a.879.879,0,1,0,1.144-1.334Zm-5.551,1.462h-1.172a.879.879,0,0,1,0-1.757h1.172a.879.879,0,1,1,0,1.757Z" transform="translate(-274.896 -284.31)" fill="#fff"/>
  <path id="Path_31" data-name="Path 31" d="M66.108,5.365a1.757,1.757,0,0,1,3.144,0,2.468,2.468,0,0,0,2.219,1.372h4.753a8.788,8.788,0,0,0-17.089,0h4.753A2.468,2.468,0,0,0,66.108,5.365Z" transform="translate(-55.671)" fill="#fff"/>
  <path id="Path_32" data-name="Path 32" d="M112.3,110.565v-3.222h-2.359A4.239,4.239,0,0,1,106.151,105a4.239,4.239,0,0,1-3.791,2.343H100v3.222a6.151,6.151,0,1,0,12.3,0Zm-4.065,2.943a2.948,2.948,0,0,1-4.171,0,.879.879,0,1,1,1.243-1.243,1.191,1.191,0,0,0,1.686,0,.879.879,0,1,1,1.242,1.243Z" transform="translate(-94.142 -98.849)" fill="#fff"/>
  <path id="Path_33" data-name="Path 33" d="M340,148.515A1.757,1.757,0,0,0,340,145Z" transform="translate(-320.084 -136.506)" fill="#fff"/>
  <path id="Path_34" data-name="Path 34" d="M41.757,148.515V145a1.757,1.757,0,1,0,0,3.515Z" transform="translate(-37.657 -136.506)" fill="#fff"/>
  <path id="Path_35" data-name="Path 35" d="M170,330.39v.563a2.05,2.05,0,1,0,4.1,0v-.563a7.918,7.918,0,0,1-4.1,0Z" transform="translate(-160.042 -311.037)" fill="#fff"/>
</svg>
