<svg id="picture" xmlns="http://www.w3.org/2000/svg" width="34.087" height="27.745" viewBox="0 0 34.087 27.745">
  <g id="Group_179" data-name="Group 179" transform="translate(0 0)">
    <g id="Group_178" data-name="Group 178" transform="translate(0 0)">
      <path id="Path_43" data-name="Path 43" d="M0,47.628V75.373H34.087V47.628Zm2.378,2.378H31.709V68.192c-4.861-.38-7.482-3.082-10.244-5.933a27.726,27.726,0,0,0-5.22-4.544,14.6,14.6,0,0,0-7.922-2.16,15.081,15.081,0,0,0-5.945,1.137V50.006ZM31.709,73H2.378V59.323a12.258,12.258,0,0,1,5.945-1.39c5.64,0,8.454,2.9,11.433,5.98a27.724,27.724,0,0,0,5.22,4.544,14.3,14.3,0,0,0,6.733,2.12Z" transform="translate(0 -47.628)" fill="#fff"/>
    </g>
  </g>
  <g id="Group_181" data-name="Group 181" transform="translate(21.404 5.549)">
    <g id="Group_180" data-name="Group 180" transform="translate(0 0)">
      <path id="Path_44" data-name="Path 44" d="M325.056,130.977a3.567,3.567,0,1,0,3.567,3.567A3.571,3.571,0,0,0,325.056,130.977Zm0,4.756a1.189,1.189,0,1,1,1.189-1.189A1.19,1.19,0,0,1,325.056,135.733Z" transform="translate(-321.489 -130.977)" fill="#fff"/>
    </g>
  </g>
</svg>
