<svg id="reading" xmlns="http://www.w3.org/2000/svg" width="35.026" height="32.587" viewBox="0 0 35.026 32.587">
  <path id="Path_38" data-name="Path 38" d="M29.192,21.627V17.821l-8.718,2.8a5.729,5.729,0,0,0-3.4,2.926,5.732,5.732,0,0,0-4.285-1.923H0V50.408H35.026V21.627ZM2.052,48.356V45.435H12.793A3.7,3.7,0,0,1,16.4,48.356Zm14.434-3.625a5.72,5.72,0,0,0-3.694-1.348H2.052v-19.7H12.793a3.7,3.7,0,0,1,3.694,3.694Zm2.052-18.637A3.683,3.683,0,0,1,21.1,22.577l6.037-1.941v19.15l-6.665,2.142a5.76,5.76,0,0,0-1.935,1.065v-16.9ZM32.973,48.356H18.539V47.4a3.69,3.69,0,0,1,.563-1.964H32.973Zm0-4.973H22.657l6.535-2.1v-17.6h3.781Z" transform="translate(0 -17.821)" fill="#fff"/>
  <path id="Path_39" data-name="Path 39" d="M70.69,135.742h8.867v2.052H70.69Z" transform="translate(-65.854 -127.675)" fill="#fff"/>
  <path id="Path_40" data-name="Path 40" d="M70.69,198.031h8.867v2.052H70.69Z" transform="translate(-65.854 -185.703)" fill="#fff"/>
  <path id="Path_41" data-name="Path 41" d="M70.69,260.32h8.867v2.052H70.69Z" transform="translate(-65.854 -243.731)" fill="#fff"/>
  <path id="Path_42" data-name="Path 42" d="M70.69,322.609h8.867v2.052H70.69Z" transform="translate(-65.854 -301.759)" fill="#fff"/>
</svg>
