<svg xmlns="http://www.w3.org/2000/svg" width="25" height="16.905" viewBox="0 0 25 16.905">
  <path id="slider001_-_E060" data-name="slider001 - E060" d="M4.675,17.716V0H2.743V17.7a3.813,3.813,0,0,0-1.662.966,3.732,3.732,0,0,0,0,5.255,3.716,3.716,0,0,0,6.337-2.628A3.692,3.692,0,0,0,4.675,17.716ZM14.162,7.071V0H12.23V7.071a3.6,3.6,0,0,0-1.662.947,3.732,3.732,0,0,0,0,5.255,3.6,3.6,0,0,0,1.662.947v7.071h1.932V14.219a3.7,3.7,0,0,0,0-7.148ZM13.2,12.423a1.777,1.777,0,1,1,1.777-1.777A1.773,1.773,0,0,1,13.2,12.423ZM3.709,23.068a1.768,1.768,0,0,1-1.256-.522,1.772,1.772,0,0,1,0-2.512,1.777,1.777,0,1,1,1.256,3.033Z" transform="translate(25) rotate(90)" fill="#fff"/>
</svg>
